<svg width="180" height="180" viewBox="0 0 180 180" fill="none" xmlns="http://www.w3.org/2000/svg">
<rect x="20.0001" y="160" width="20" height="20" fill="black"/>
<rect x="40.0001" y="160" width="20" height="20" fill="black"/>
<rect x="60.0002" y="160" width="20" height="20" fill="black"/>
<rect x="80.0002" y="160" width="20" height="20" fill="black"/>
<rect x="99.9998" y="160" width="20" height="20" fill="black"/>
<rect x="120" y="160" width="20" height="20" fill="black"/>
<rect x="140" y="160" width="20" height="20" fill="black"/>
<rect x="160" y="160" width="20" height="20" fill="black"/>
<rect x="160" y="140" width="20" height="20" fill="black"/>
<rect y="140" width="20" height="20" fill="black"/>
<rect y="160" width="20" height="20" fill="black"/>
<rect x="80.0002" y="120" width="20" height="20" fill="black"/>
<rect y="120" width="20" height="20" fill="black"/>
<rect x="80.0002" y="100" width="20" height="20" fill="black"/>
<rect x="160" y="120" width="20" height="20" fill="black"/>
<rect x="80.0002" y="80" width="20" height="20" fill="black"/>
<rect x="80.0002" y="60" width="20" height="20" fill="black"/>
<rect x="80.0002" y="40" width="20" height="20" fill="black"/>
<rect x="80.0002" y="20" width="20" height="20" fill="black"/>
<rect x="60.0002" y="40" width="20" height="20" fill="black"/>
<rect x="40.0001" y="40" width="20" height="20" fill="black"/>
<rect x="99.9998" y="40" width="20" height="20" fill="black"/>
<rect x="120" y="40" width="20" height="20" fill="black"/>
<rect x="99.9998" y="20" width="20" height="20" fill="black"/>
<rect x="60.0002" y="20" width="20" height="20" fill="black"/>
<rect x="80.0002" width="20" height="20" fill="black"/>
</svg>
